<?xml version="1.0" encoding="UTF-8"?><svg width="72" height="72" viewBox="0 0 72 72" fill="none" xmlns="http://www.w3.org/2000/svg">
<circle opacity="0.3" cx="36" cy="36" r="32" fill="white" stroke="#E7F9F2" stroke-width="8"/>
<circle cx="36" cy="36" r="28" fill="#2A7D2E"/>
<mask id="mask0" mask-type="alpha" maskUnits="userSpaceOnUse" x="8" y="8" width="56" height="56">
<circle cx="36" cy="36" r="28" fill="#145637"/>
</mask>
<g mask="url(#mask0)">
<path d="M61.7916 55.701V55.2844C61.7916 54.3124 60.9635 53.4792 59.9973 53.4792H58.272V51.4656C58.272 50.563 57.5128 49.7993 56.6157 49.7993C56.1326 47.8552 54.3382 46.4665 52.3369 46.4665C50.3355 46.4665 48.5412 47.8552 47.9891 49.7993C47.0919 49.7993 46.3328 50.563 46.3328 51.4656V53.4097H45.2976V51.3268C45.2976 51.1879 45.2976 51.1185 45.2286 50.9796L39.9146 41.4674C40.1907 41.1897 40.3977 40.7731 40.4667 40.426C40.6047 39.315 39.8456 38.2736 38.8104 38.1347L33.7725 37.4404V33.1356C33.7725 30.5666 31.7021 28.4836 29.1487 28.4836C26.5952 28.4836 24.5248 30.5666 24.5248 33.1356C24.5248 42.6478 24.5248 48.7578 24.5938 50.1464L19.0728 55.7704C18.1757 56.6731 18.1757 58.2006 19.0728 59.1032L21.7643 61.7416C22.6615 62.6442 24.1798 62.6442 25.0769 61.7416C25.491 61.325 25.7671 60.7001 25.7671 60.0752C25.7671 59.4503 25.491 58.8254 25.0769 58.4088L23.9727 57.2979L28.5276 52.646C28.9416 52.2294 29.2177 51.6045 29.2177 50.9796V48.2023C29.3557 48.2023 29.4937 48.2023 29.6318 48.2023L31.5641 51.3268V59.242C31.5641 60.5612 32.5993 61.6027 33.9105 61.6027H36.8781C38.1893 61.6027 39.2245 60.5612 39.2245 59.242C39.2245 57.9228 38.1893 56.8813 36.8781 56.8813H36.257V50.6325C36.257 50.2159 36.1189 49.7993 35.9119 49.3827L33.4274 45.4251C33.7035 44.8696 33.8415 44.2447 33.8415 43.5504V41.398C38.5344 42.0923 38.3273 42.0923 38.7414 42.0923L43.9174 51.5351V53.5486C43.2962 53.8263 42.8132 54.4512 42.8132 55.215V55.6316C41.5709 55.9093 40.6738 57.0202 40.6738 58.3394C40.6738 59.9364 41.916 61.1861 43.5033 61.1861C44.8145 61.1861 45.9187 60.2835 46.2638 59.0337H58.41C58.686 60.2835 59.7902 61.1861 61.1705 61.1861C62.7578 61.1861 64 59.9364 64 58.3394C63.931 57.0896 63.0338 55.9787 61.7916 55.701ZM34.6697 50.2159C34.7387 50.3547 34.8077 50.563 34.8077 50.7019V57.6451C34.8077 58.0617 35.0837 58.3394 35.4978 58.3394H36.8091C37.3612 58.3394 37.7752 58.756 37.7752 59.3115C37.7752 59.8669 37.3612 60.2835 36.8091 60.2835H33.8415C33.2894 60.2835 32.8753 59.8669 32.8753 59.3115V51.1879C32.8753 51.0491 32.8063 50.9102 32.7373 50.8408L31.012 47.8552C31.6331 47.5775 32.1162 47.2303 32.5303 46.7443L34.6697 50.2159ZM31.4261 39.7316C31.219 39.7316 31.012 39.5233 30.943 39.315L28.8726 33.8993C28.7346 33.5522 28.3205 33.3439 27.9755 33.4827C27.6304 33.6216 27.4234 34.0382 27.5614 34.3854L29.6318 39.8011C29.9078 40.4954 30.4599 40.9814 31.219 41.0508L32.3923 41.2591V43.6198C32.3923 45.4251 30.943 46.8831 29.1487 46.8831C28.9416 46.8831 28.8036 46.8831 28.6656 46.8137C28.4585 46.7443 28.2515 46.8137 28.1135 46.9526C27.9755 47.0914 27.8374 47.2997 27.8374 47.508V51.0491C27.8374 51.3268 27.7684 51.5351 27.5614 51.7434L22.5235 56.8813C22.2474 57.1591 22.2474 57.5757 22.5235 57.8534L24.1108 59.4503C24.4558 59.7975 24.4558 60.4224 24.1108 60.839C23.7657 61.1861 23.1446 61.1861 22.7995 60.839L20.108 58.1311C19.763 57.784 19.763 57.1591 20.108 56.8119L25.8361 50.9796C25.9741 50.8408 26.0431 50.7019 26.0431 50.4936C26.0431 44.8696 25.9741 38.829 25.9741 33.205C25.9741 31.3998 27.4234 29.9417 29.2177 29.9417C31.012 29.9417 32.4613 31.3998 32.4613 33.205V35.9129L31.3571 32.9967C31.219 32.6496 30.805 32.4413 30.4599 32.5801C30.1148 32.719 29.9078 33.1356 30.0458 33.4827L31.8402 38.2041C31.9092 38.4124 32.1162 38.6207 32.3923 38.6207L38.6034 39.5233C38.9484 39.5928 39.1555 39.8705 39.1555 40.2177C39.0865 40.5648 38.8104 40.7731 38.4654 40.7731L31.4261 39.7316ZM60.4114 55.2844V55.701C59.4452 55.9787 58.617 56.7425 58.341 57.784H46.2638C45.9877 56.8119 45.2286 55.9787 44.1934 55.701V55.2844C44.1934 55.0761 44.4004 54.8678 44.6075 54.8678C50.1975 54.8678 54.2692 54.8678 59.9973 54.8678C60.2043 54.7984 60.4114 55.0067 60.4114 55.2844ZM52.3369 47.8552C53.6481 47.8552 54.7523 48.6189 55.2354 49.7993H49.4384C49.9214 48.6189 51.0256 47.8552 52.3369 47.8552ZM47.713 51.4656C47.713 51.3268 47.8511 51.1879 47.9891 51.1879H56.6157C56.7537 51.1879 56.8917 51.3268 56.8917 51.4656V53.4097H55.7875V52.5766C55.7875 52.16 55.5115 51.8822 55.0974 51.8822C54.6833 51.8822 54.4073 52.16 54.4073 52.5766V53.4097H53.027V52.5766C53.027 52.16 52.751 51.8822 52.3369 51.8822C51.9228 51.8822 51.6468 52.16 51.6468 52.5766V53.4097H50.2665V52.5766C50.2665 52.16 49.9905 51.8822 49.5764 51.8822C49.1623 51.8822 48.8863 52.16 48.8863 52.5766V53.4097H47.7821V51.4656H47.713ZM43.5033 59.8669C42.6751 59.8669 42.054 59.242 42.054 58.4088C42.054 57.5757 42.6751 56.9508 43.5033 56.9508C44.3314 56.9508 44.9525 57.5757 44.9525 58.4088C44.9525 59.242 44.3314 59.8669 43.5033 59.8669ZM61.1015 59.8669C60.2733 59.8669 59.6522 59.242 59.6522 58.4088C59.6522 57.5757 60.2733 56.9508 61.1015 56.9508C61.9296 56.9508 62.5507 57.5757 62.5507 58.4088C62.5507 59.242 61.9296 59.8669 61.1015 59.8669Z" fill="white"/>
<path d="M29.6759 27.4233C31.2575 27.4233 32.7016 26.5036 33.2517 25.124L34.4207 25.6496C34.7646 25.7809 35.1771 25.6496 35.3147 25.3211C35.4522 24.9926 35.3147 24.5985 34.9708 24.4671L33.458 23.7445V23.6788C33.5268 21.6423 31.8077 20 29.6759 20C27.5442 20 25.8251 21.6423 25.8251 23.6788C25.7563 25.7153 27.5442 27.4233 29.6759 27.4233ZM29.6759 26.1094C28.3006 26.1094 27.2004 25.0583 27.2004 23.7445C27.2004 23.2846 27.3379 22.8905 27.5442 22.4963L32.014 24.5985C31.6014 25.4525 30.7074 26.1094 29.6759 26.1094ZM32.0827 23.0876L28.6445 21.5109C28.9195 21.3795 29.2634 21.3139 29.6759 21.3139C30.8449 21.3139 31.8077 22.0365 32.0827 23.0876Z" fill="white"/>
</g>
</svg>
